<svg width="19" height="18" viewBox="0 0 19 18" fill="none" xmlns="http://www.w3.org/2000/svg">
<g clipPath="url(#clip0_7909_3)">
<path d="M0.5 1.6875C0.5 1.53832 0.559263 1.39524 0.664752 1.28975C0.770242 1.18426 0.913316 1.125 1.0625 1.125H2.75C2.87547 1.12503 2.99733 1.16702 3.0962 1.24428C3.19506 1.32154 3.26526 1.42963 3.29562 1.55137L3.75125 3.375H16.8125C16.8951 3.37508 16.9767 3.39334 17.0514 3.42849C17.1261 3.46365 17.1922 3.51483 17.2449 3.5784C17.2977 3.64198 17.3357 3.71638 17.3565 3.79633C17.3772 3.87628 17.3801 3.95982 17.3649 4.041L15.6774 13.041C15.6532 13.1699 15.5848 13.2863 15.484 13.3701C15.3831 13.4539 15.2561 13.4999 15.125 13.5H5C4.86886 13.4999 4.74189 13.4539 4.64102 13.3701C4.54016 13.2863 4.47175 13.1699 4.44762 13.041L2.76125 4.05788L2.31125 2.25H1.0625C0.913316 2.25 0.770242 2.19074 0.664752 2.08525C0.559263 1.97976 0.5 1.83668 0.5 1.6875ZM3.98975 4.5L5.46687 12.375H14.6581L16.1352 4.5H3.98975ZM6.125 13.5C5.52826 13.5 4.95597 13.7371 4.53401 14.159C4.11205 14.581 3.875 15.1533 3.875 15.75C3.875 16.3467 4.11205 16.919 4.53401 17.341C4.95597 17.7629 5.52826 18 6.125 18C6.72174 18 7.29403 17.7629 7.71599 17.341C8.13795 16.919 8.375 16.3467 8.375 15.75C8.375 15.1533 8.13795 14.581 7.71599 14.159C7.29403 13.7371 6.72174 13.5 6.125 13.5ZM14 13.5C13.4033 13.5 12.831 13.7371 12.409 14.159C11.9871 14.581 11.75 15.1533 11.75 15.75C11.75 16.3467 11.9871 16.919 12.409 17.341C12.831 17.7629 13.4033 18 14 18C14.5967 18 15.169 17.7629 15.591 17.341C16.0129 16.919 16.25 16.3467 16.25 15.75C16.25 15.1533 16.0129 14.581 15.591 14.159C15.169 13.7371 14.5967 13.5 14 13.5ZM6.125 14.625C6.42337 14.625 6.70952 14.7435 6.92049 14.9545C7.13147 15.1655 7.25 15.4516 7.25 15.75C7.25 16.0484 7.13147 16.3345 6.92049 16.5455C6.70952 16.7565 6.42337 16.875 6.125 16.875C5.82663 16.875 5.54048 16.7565 5.3295 16.5455C5.11853 16.3345 5 16.0484 5 15.75C5 15.4516 5.11853 15.1655 5.3295 14.9545C5.54048 14.7435 5.82663 14.625 6.125 14.625ZM14 14.625C14.2984 14.625 14.5845 14.7435 14.7955 14.9545C15.0065 15.1655 15.125 15.4516 15.125 15.75C15.125 16.0484 15.0065 16.3345 14.7955 16.5455C14.5845 16.7565 14.2984 16.875 14 16.875C13.7016 16.875 13.4155 16.7565 13.2045 16.5455C12.9935 16.3345 12.875 16.0484 12.875 15.75C12.875 15.4516 12.9935 15.1655 13.2045 14.9545C13.4155 14.7435 13.7016 14.625 14 14.625Z" fill="#6F6F6F"/>
</g>
<defs>
<clipPath id="clip0_7909_3">
<rect width="18" height="18" fill="white" transform="translate(0.5)"/>
</clipPath>
</defs>
</svg>
